<svg width="1401" height="616" viewBox="0 0 1401 616" fill="none" xmlns="http://www.w3.org/2000/svg">
<path d="M1398.84 232.475C1403.27 273.488 1388.01 314.706 1356.54 354.14C1325.07 393.576 1277.41 431.2 1217.11 464.997C1096.5 532.589 925.405 584.825 732.413 605.659C539.421 626.493 361.119 611.974 228.865 571.679C162.736 551.53 108.144 524.945 68.9832 493.133C29.8246 461.323 6.12306 424.312 1.6956 383.298C-2.73185 342.284 12.5249 301.067 43.9925 261.633C75.462 222.197 123.123 184.573 183.428 150.776C304.036 83.1836 475.131 30.9476 668.123 10.1139C861.115 -10.7198 1039.42 3.7986 1171.67 44.0943C1237.8 64.2424 1292.39 90.8278 1331.55 122.64C1370.71 154.45 1394.41 191.461 1398.84 232.475Z" stroke="white"/>
</svg>
