<svg width="533" height="374" viewBox="0 0 533 374" fill="none" xmlns="http://www.w3.org/2000/svg">
<path d="M378.607 53.9117C414.27 70.4715 459.299 74.6114 479.832 96.3461C500.365 118.081 496.042 157.41 507.57 202.949C518.737 248.489 545.394 300.583 526.302 324.388C507.21 348.192 442.368 344.397 395.178 341.982C348.347 339.567 319.529 338.877 284.587 348.882C249.284 359.232 208.217 380.622 181.56 371.997C154.903 363.027 142.655 324.388 109.874 289.888C77.4534 255.734 24.4994 226.409 6.84802 187.08C-10.8033 147.75 7.20827 98.761 43.2314 70.1265C78.8943 41.1469 132.569 32.1771 176.877 20.7922C221.186 9.06242 255.768 -5.08236 286.388 1.81753C317.007 9.06242 343.304 37.697 378.607 53.9117Z" fill="#EBFF82"/>
</svg>
