<svg width="453" height="369" viewBox="0 0 453 369" fill="none" xmlns="http://www.w3.org/2000/svg">
<path d="M437.312 62.456C463.589 81.8834 451.999 134.099 431.632 172.643C411.265 211.187 382.423 236.188 364.759 270.067C347.096 303.945 341.036 346.541 318.248 357.354C295.637 368.585 256.298 348.033 209.254 350.55C161.908 352.937 106.679 377.974 74.778 365.046C42.8766 352.118 34.3026 301.225 20.7369 253.678C7.59635 205.971 -9.93292 161.867 6.95965 133.135C24.1537 104.533 76.1946 91.1419 112.426 65.5283C148.657 39.9148 169.202 1.78903 195.054 0.498351C220.605 -0.920969 251.765 34.6234 299.417 45.7154C346.767 56.6787 411.213 43.4468 437.312 62.456Z" fill="#EBFF82"/>
</svg>
