<svg width="452" height="368" viewBox="0 0 452 368" fill="none" xmlns="http://www.w3.org/2000/svg">
<path d="M344.779 33.5053C384.749 50.0062 429.515 68.035 444.863 99.2033C460.212 130.066 446.462 174.374 443.584 222.96C441.026 271.546 449.66 324.41 424.399 345.8C399.138 367.19 339.982 357.106 293.937 354.356C247.892 351.3 214.637 355.884 167.952 361.69C121.267 367.801 61.4722 375.441 30.4556 352.523C-0.88076 329.91 -3.43882 277.046 2.6366 230.905C8.71202 184.458 23.1012 145.039 43.5657 111.121C64.3501 77.2021 91.5296 48.7839 124.145 29.2273C156.76 9.36508 194.812 -1.63552 231.904 0.197912C268.996 2.03135 304.489 17.0044 344.779 33.5053Z" fill="#EBFF82"/>
</svg>
