<svg width="1257" height="584" viewBox="0 0 1257 584" fill="none" xmlns="http://www.w3.org/2000/svg">
<path d="M1253.6 407.663C1246.81 444.363 1222.89 476.141 1185.38 502.173C1147.87 528.207 1096.79 548.472 1035.73 562.14C913.608 589.475 751.689 590.4 578.922 558.413C406.155 526.426 255.3 467.593 151.062 398.35C98.943 363.727 58.4995 326.517 32.7936 288.778C7.08935 251.042 -3.86022 212.81 2.93466 176.11C9.72954 139.409 33.641 107.631 71.1516 81.5991C108.665 55.5653 159.749 35.3004 220.809 21.6327C342.927 -5.70226 504.847 -6.62741 677.614 25.3593C850.38 57.346 1001.24 116.18 1105.47 185.423C1157.59 220.045 1198.04 257.256 1223.74 294.994C1249.45 332.73 1260.4 370.962 1253.6 407.663Z" stroke="black"/>
</svg>
