<svg width="546" height="330" viewBox="0 0 546 330" fill="none" xmlns="http://www.w3.org/2000/svg">
<path d="M332.226 57.588C359.572 64.1349 390.033 71.9409 432.956 87.3011C476.225 102.913 532.302 125.827 543.725 153.526C555.148 181.225 521.571 213.708 487.302 240.147C452.687 266.335 417.033 286.48 378.264 301.336C339.495 316.193 297.957 325.761 253.649 329.035C209.342 332.057 162.611 328.783 139.073 307.631C115.535 286.228 115.189 247.198 100.65 217.737C86.1118 188.275 57.3812 168.383 33.1505 138.67C9.26601 108.705 -10.1185 68.9192 5.80449 41.2206C22.0736 13.5219 73.3042 -1.83829 120.727 0.176163C168.15 2.19061 212.111 21.5797 246.38 33.9182C280.649 46.0049 304.88 51.2928 332.226 57.588Z" fill="#EBFF82"/>
</svg>
