<svg width="489" height="350" viewBox="0 0 489 350" fill="none" xmlns="http://www.w3.org/2000/svg">
<path d="M165.239 14.4429C119.849 19.4531 69.234 32.0977 36.5793 57.3869C3.92468 82.9147 -10.7699 121.087 8.82285 150.909C28.7422 180.732 83.2755 202.204 124.747 216.28C166.545 230.356 195.281 236.797 220.752 261.371C246.222 285.944 268.427 328.65 302.388 343.441C336.349 358.472 382.066 345.589 418.639 325.787C455.539 305.746 483.295 279.025 488.193 250.158C493.091 221.29 474.805 190.275 457.171 166.655C439.864 143.036 422.557 127.052 417.986 97.4679C413.741 67.8843 422.557 24.7018 403.291 8.4785C384.351 -7.5062 337.329 3.2298 293.898 7.5242C250.467 11.8186 210.302 9.43281 165.239 14.4429Z" fill="#EBFF82"/>
</svg>
