<svg width="494" height="383" viewBox="0 0 494 383" fill="none" xmlns="http://www.w3.org/2000/svg">
<path d="M85.5 80.5001C113.654 51.2184 121.249 -0.840721 169.67 0.40122C218.43 1.66662 258.437 11.7256 309.41 10.4153C360.025 9.38341 421.607 -3.01774 445.225 18.3369C468.484 39.9699 453.78 95.3588 458.969 142.728C464.136 190.399 489.176 230.353 493.14 275.818C496.787 320.957 473.49 348.334 434 365C394.51 381.666 338.787 388.224 288.378 376.533C238.306 364.864 198.702 358.776 153.293 348.342C107.864 338.209 55.9555 323.684 30.9831 292.53C6.32735 261.701 -9.26501 210.846 8.62959 165.114C21 133.5 57.683 109.805 85.5 80.5001Z" fill="#EBFF82"/>
</svg>
