<svg width="437" height="377" viewBox="0 0 437 377" fill="none" xmlns="http://www.w3.org/2000/svg">
<path d="M176.206 317.01C142.051 301.288 94.7349 310.986 57.8883 297.726C21.0229 284.181 -5.37282 247.678 1.84271 214.374C8.7552 180.804 49.2978 150.716 69.4954 110.844C89.7118 71.2548 57.4239 31.1907 80.0001 9.99997C102.292 -11.1719 171.968 7.89682 213.5 9.99995C255.297 11.8001 297.946 1.13433 336.5 9.99997C375.073 19.1498 401.393 28.8105 416.403 61.5C431.413 94.1894 439.129 136.041 436.419 177.04C433.407 217.773 436.156 254.985 416.403 275.704C396.347 296.157 354.055 299.813 322.877 320.431C291.698 341.05 272.184 378.308 251.779 376.234C231.373 374.159 210.38 333.017 176.206 317.01Z" fill="#EBFF82"/>
</svg>
