<?xml version="1.0" encoding="utf-8"?><svg viewBox="0 0 20 20" xmlns="http://www.w3.org/2000/svg" xmlns:xlink="http://www.w3.org/1999/xlink"><style>:root>svg{display:none}:root>svg:target{display:block}</style><svg viewBox="0 0 18 18" id="insta" xmlns="http://www.w3.org/2000/svg"><path d="M6.35 2h6.3C15.05 2 17 3.95 17 6.35v6.3A4.35 4.35 0 0112.65 17h-6.3C3.95 17 2 15.05 2 12.65v-6.3A4.35 4.35 0 016.35 2zM6.2 3.5a2.7 2.7 0 00-2.7 2.7v6.6c0 1.492 1.207 2.7 2.7 2.7h6.6a2.7 2.7 0 002.7-2.7V6.2c0-1.493-1.207-2.7-2.7-2.7H6.2zm7.237 1.125a.937.937 0 110 1.875.937.937 0 010-1.875zM9.5 5.75a3.75 3.75 0 110 7.5 3.75 3.75 0 010-7.5zm0 1.5a2.25 2.25 0 100 4.5 2.25 2.25 0 000-4.5z"/></svg><svg viewBox="0 0 19 22" id="left-arrow" xmlns="http://www.w3.org/2000/svg"><path d="M0 11.175L18.75.349V22L0 11.175z"/></svg><svg viewBox="0 0 20 23" id="right-arrow" xmlns="http://www.w3.org/2000/svg"><path d="M19.5 11.5L.75.675v21.65L19.5 11.5z"/></svg><svg viewBox="0 0 18 18" id="tg" xmlns="http://www.w3.org/2000/svg"><path d="M16.777 2.153a.649.649 0 00-.654-.11L1.648 7.595c-.206.078-.38.22-.495.403a.98.98 0 00.108 1.191c.148.16.344.27.56.31l3.75.722v4.099c0 .223.068.441.195.627a1.158 1.158 0 001.77.15l1.81-1.838 2.869 2.461a1.148 1.148 0 001.107.225c.189-.059.359-.165.492-.308.134-.143.227-.317.27-.506l2.9-12.361a.618.618 0 00-.207-.617zm-4.367 2.52L6.011 9.164l-3.543-.68 9.942-3.81zM6.715 14.32v-3.324l1.77 1.522-1.77 1.802zm6.252.56L7.06 9.805l8.5-5.97-2.594 11.045z"/></svg><svg viewBox="0 0 20 20" id="vk" xmlns="http://www.w3.org/2000/svg"><path fill-rule="evenodd" clip-rule="evenodd" d="M18.849 13.768a9.19 9.19 0 00-1.728-2.39 12.57 12.57 0 00-.737-.758l-.03-.03a15.083 15.083 0 01-.282-.278 23.906 23.906 0 002.45-4.223l.027-.06.018-.062c.09-.293.19-.85-.168-1.352-.371-.52-.965-.613-1.363-.613h-1.829a1.83 1.83 0 00-1.082.295c-.32.208-.565.512-.7.868a14.081 14.081 0 01-1.47 2.637V5.68c0-.274-.027-.734-.324-1.12-.355-.465-.869-.557-1.225-.557H7.503a1.484 1.484 0 00-1.027.38c-.28.252-.452.602-.479.976l-.002.036v.037c0 .39.156.68.281.86.056.082.116.156.154.203l.008.01c.04.05.068.084.095.12.071.096.173.244.202.627v1.187A15.882 15.882 0 015.31 5.381l-.007-.018-.006-.017c-.1-.257-.258-.631-.576-.917-.372-.334-.811-.427-1.21-.427H1.653c-.404 0-.892.093-1.256.473C.041 4.85 0 5.298 0 5.535v.108l.023.105a15.603 15.603 0 003.094 6.466 8.227 8.227 0 002.756 2.653 8.32 8.32 0 003.67 1.13l.033.003h.034c.59 0 1.207-.05 1.67-.356.625-.413.674-1.046.674-1.362v-.918c.16.13.36.302.602.534.295.292.53.545.73.766l.108.118c.156.172.31.342.45.482.176.175.394.368.665.51.296.154.606.224.935.224H17.3c.391 0 .952-.091 1.347-.545.43-.493.397-1.099.262-1.533l-.024-.079-.037-.073zm-4.656.086a21.24 21.24 0 00-.78-.818l-.002-.002c-1.104-1.055-1.62-1.238-1.984-1.238-.195 0-.409.02-.548.193a.62.62 0 00-.12.28 1.96 1.96 0 00-.026.359v1.654c0 .205-.034.292-.13.354-.128.085-.4.154-.986.154a7.089 7.089 0 01-3.145-.978 7.01 7.01 0 01-2.351-2.29l-.007-.01-.008-.01a14.4 14.4 0 01-2.885-5.987c.003-.104.026-.168.064-.207.038-.04.131-.097.37-.097H3.51c.206 0 .314.046.39.114.087.08.164.212.255.45C4.61 7.1 5.226 8.342 5.81 9.254c.291.456.578.836.837 1.105.129.134.255.245.377.324a.724.724 0 00.385.136.594.594 0 00.236-.043.424.424 0 00.204-.187c.084-.151.107-.375.107-.667v-2.72c-.043-.66-.244-1.031-.44-1.295a4.56 4.56 0 00-.121-.156l-.01-.013a2.172 2.172 0 01-.1-.129.313.313 0 01-.07-.172.256.256 0 01.264-.227h2.927c.167 0 .224.04.252.078.04.052.075.161.075.39V9.33c0 .434.202.727.495.727.337 0 .58-.202 1.005-.623l.008-.008.006-.007A15.3 15.3 0 0014.56 5.61l.003-.01a.591.591 0 01.603-.39h1.872c.254 0 .337.064.365.102.028.04.049.127 0 .296a22.695 22.695 0 01-2.466 4.193l-.007.01c-.093.142-.197.3-.211.48-.017.196.068.373.217.563.108.158.332.375.56.595l.02.02c.238.231.496.481.703.723l.006.006.005.006a7.979 7.979 0 011.519 2.086c.061.21.024.317-.025.373-.056.064-.182.125-.421.125h-1.858a.746.746 0 01-.364-.085 1.593 1.593 0 01-.37-.293c-.116-.116-.242-.255-.397-.425l-.12-.132z"/></svg></svg>